<?xml version="1.0" encoding="UTF-8"?>
<svg id="Layer_1" data-name="Layer 1" xmlns="http://www.w3.org/2000/svg" viewBox="0 0 239.22 105.37">
  <defs>
    <style>
      .cls-1 {
        stroke-miterlimit: 10;
      }

      .cls-1, .cls-2 {
        fill: none;
        stroke: #878787;
        stroke-width: 1.2px;
      }

      .cls-3 {
        fill: #005ea1;
      }

      .cls-2 {
        stroke-linecap: round;
        stroke-linejoin: round;
      }

      .cls-4 {
        fill: #878787;
      }
    </style>
  </defs>
  <g>
    <path class="cls-4" d="M9.06,100.87h-2.08v-15.7h2.08v15.7Z"/>
    <path class="cls-4" d="M20.06,85.17l2.23,11.33h.04l.06-.65.62-3.77,1.35-6.92h1.83l1.46,15.7h-2.04l-.38-5.85-.12-2.92-.04-2.06h-.04l-.35,2.25-1.62,8.58h-1.44l-2.02-10.83h-.04l-.6,10.83h-1.98l1.29-15.7h1.79Z"/>
    <path class="cls-4" d="M35.57,100.87v-15.7h2.5c1.79,0,4.08.17,4.08,4.21,0,3.19-1.25,4.67-4.5,4.54v6.96h-2.08ZM37.66,86.94v5.21c1.79.12,2.29-.85,2.29-2.6,0-1.42-.42-2.6-2-2.6h-.29Z"/>
    <path class="cls-4" d="M55.4,85.17v1.81h-3.52v4.94h3.14v1.81h-3.14v5.33h3.52v1.81h-5.6v-15.7h5.6Z"/>
    <path class="cls-4" d="M63.17,85.17h2.5c1.52,0,3.9.08,3.9,4.02,0,1.48-.44,3.73-2.17,4.04l2.89,7.64h-2.17l-2.83-7.69h-.04v7.69h-2.08v-15.7ZM67.35,89.65c0-1.5-.19-2.75-1.77-2.71h-.33v5.19c1.56.1,2.1-.9,2.1-2.48Z"/>
    <path class="cls-4" d="M80.28,85.17l2.23,11.33h.04l.06-.65.62-3.77,1.35-6.92h1.83l1.46,15.7h-2.04l-.37-5.85-.12-2.92-.04-2.06h-.04l-.35,2.25-1.62,8.58h-1.44l-2.02-10.83h-.04l-.6,10.83h-1.98l1.29-15.7h1.79Z"/>
    <path class="cls-4" d="M101.4,85.17v1.81h-3.52v4.94h3.14v1.81h-3.14v5.33h3.52v1.81h-5.6v-15.7h5.6Z"/>
    <path class="cls-4" d="M113.04,85.17l3.37,15.7h-2.1l-.58-3.06h-3.12l-.58,3.06h-2.04l3.42-15.7h1.65ZM113,93.92l-.79-5.71h-.04l-1.25,7.98h2.5l-.42-2.27Z"/>
    <path class="cls-4" d="M123.94,100.87v-15.7h2.6c2.83,0,3.62,1.56,3.62,4.21,0,1.54-.31,3.04-1.98,3.48v.04c1.79.56,2.21,1.94,2.21,3.69,0,2.9-1.06,4.29-3.96,4.29h-2.5ZM126.27,86.94h-.35v5.15c1.94.08,2.21-1.12,2.21-2.79,0-1.23-.42-2.38-1.85-2.35ZM125.91,99.1c1.81.08,2.27-.85,2.27-2.58s-.35-2.81-2.27-2.77v5.35Z"/>
    <path class="cls-4" d="M140.87,100.87h-2.08v-15.7h2.08v15.7Z"/>
    <path class="cls-4" d="M151.63,85.17v13.89h3.5v1.81h-5.58v-15.7h2.08Z"/>
    <path class="cls-4" d="M164.67,100.87h-2.08v-15.7h2.08v15.7Z"/>
    <path class="cls-4" d="M179.9,85.17l-4.73,13.89h4.48v1.81h-7.25l4.77-13.89h-4.21v-1.81h6.94Z"/>
    <path class="cls-4" d="M191.56,85.17l3.37,15.7h-2.1l-.58-3.06h-3.12l-.58,3.06h-2.04l3.42-15.7h1.65ZM191.52,93.92l-.79-5.71h-.04l-1.25,7.98h2.5l-.42-2.27Z"/>
    <path class="cls-4" d="M208.53,87.31c-.42-.21-.85-.4-1.33-.4-2.92,0-2.94,4.25-2.94,6.21,0,2.08.17,6,3.02,6,.46,0,.85-.1,1.25-.31v1.83c-.52.33-1.06.44-1.67.44-4.25,0-4.81-4.52-4.81-7.81s.4-8.31,4.66-8.31c.71,0,1.21.1,1.81.46v1.89ZM206.99,102.6l-1.77,2.77-.9-.48,1.29-2.96,1.37.67Z"/>
    <path class="cls-4" d="M222.15,82.38c.02,1.02-.35,2.06-1.54,2.06-.77,0-1.4-.67-1.96-.67-.35,0-.48.25-.46.58h-1.27c.02-1,.42-2.06,1.56-2.06.96,0,1.46.69,2.1.69.33,0,.37-.35.4-.6h1.17Z"/>
    <path class="cls-4" d="M220.15,85.17h-1.65l-3.42,15.7h2.04l.58-3.06h3.12l.58,3.06h2.1l-3.37-15.7ZM218.03,96.19l1.25-7.98h.04l.79,5.71.42,2.27h-2.5Z"/>
    <path class="cls-4" d="M238.81,93.02c0,2.83-.04,8.06-4.08,8.06s-4.08-5.23-4.08-8.06.04-8.06,4.08-8.06,4.08,5.23,4.08,8.06ZM232.86,93.02c0,3.33.23,6.1,1.87,6.1s1.87-2.77,1.87-6.1-.23-6.1-1.87-6.1-1.87,2.77-1.87,6.1Z"/>
  </g>
  <g>
    <path class="cls-3" d="M13.65,76.5h-6.61V26.62h6.61v49.88Z"/>
    <path class="cls-3" d="M27.74,26.62l7.08,35.98h.13l.2-2.05,1.98-11.97,4.3-21.96h5.82l4.63,49.88h-6.48l-1.19-18.59-.4-9.26-.13-6.55h-.13l-1.12,7.14-5.16,27.25h-4.56l-6.42-34.4h-.13l-1.92,34.4h-6.28l4.1-49.88h5.69Z"/>
    <path class="cls-3" d="M56.18,76.5V26.62h7.94c5.69,0,12.96.53,12.96,13.36,0,10.12-3.97,14.82-14.29,14.42v22.09h-6.61ZM62.79,32.25v16.54c5.69.4,7.28-2.71,7.28-8.27,0-4.5-1.32-8.27-6.35-8.27h-.93Z"/>
    <path class="cls-3" d="M98.31,26.62v5.75h-11.18v15.68h9.99v5.75h-9.99v16.93h11.18v5.76h-17.79V26.62h17.79Z"/>
    <path class="cls-3" d="M102.14,26.62h7.94c4.83,0,12.37.26,12.37,12.77,0,4.7-1.39,11.84-6.88,12.83l9.19,24.28h-6.88l-9-24.41h-.13v24.41h-6.61V26.62ZM115.44,40.85c0-4.76-.6-8.73-5.62-8.6h-1.06v16.47c4.96.33,6.68-2.84,6.68-7.87Z"/>
    <path class="cls-4" d="M143.15,26.62l4.83,29.44h.13l3.97-29.44h13.23l5.23,49.88h-10.12l-2.38-35.92h-.13l-1.59,12.3-4.23,23.61h-7.61l-4.83-23.88-1.65-11.11v-.93h-.13l-1.46,35.92h-10.58l4.37-49.88h12.96Z"/>
    <path class="cls-4" d="M193.22,26.62l11.97,49.88h-10.52l-1.85-8.4h-9.99l-1.79,8.4h-9.79l11.58-49.88h10.38ZM188.86,47l-1.12-7.54h-.13l-1.06,7.54-2.12,13.3h6.95l-2.51-13.3Z"/>
    <path class="cls-4" d="M216.9,26.62l2.84,6.95c.86,2.45,1.85,5.03,2.38,7.61h.13c.53-2.58,1.32-5.09,2.25-7.61l2.98-6.95h10.65l-10.65,24.14,11.44,25.73h-11.44l-3.18-7.94c-.93-2.51-1.52-4.96-2.18-7.48h-.13c-.73,2.51-1.32,4.96-2.18,7.48l-2.91,7.94h-11.11l10.58-25.73-10.58-24.14h11.11Z"/>
  </g>
  <g>
    <path class="cls-4" d="M9.28,12.31c-1.67,0-3.03-1.36-3.03-3.03s1.36-3.03,3.03-3.03,3.03,1.36,3.03,3.03-1.36,3.03-3.03,3.03Z"/>
    <circle class="cls-1" cx="9.28" cy="9.28" r="5.75"/>
    <circle class="cls-1" cx="9.28" cy="9.28" r="8.68" transform="translate(-3.04 4.77) rotate(-24.89)"/>
    <line class="cls-2" x1="238.62" y1="17.96" x2="9.28" y2="17.96"/>
    <line class="cls-2" x1="119.73" y1=".6" x2="9.28" y2=".6"/>
  </g>
</svg>