<?xml version="1.0" encoding="UTF-8"?>
<svg id="Camada_1" data-name="Camada 1" xmlns="http://www.w3.org/2000/svg" viewBox="0 0 384 270.06">
  <defs>
    <style>
      .cls-1 {
        fill: #4a4a4a;
      }
    </style>
  </defs>
  <path class="cls-1" d="M0,29.28c1.33-2.76,1.44-6.06,2.84-8.81.36-.71-.19-1.21,1.28-.94l115.08,115.77L4.11,250.52c-1.47.27-.92-.23-1.28-.94-.75-1.47-2.65-7.29-2.84-8.81V29.28Z"/>
  <path class="cls-1" d="M384,240.78c-1.33,2.76-1.44,6.06-2.84,8.81-.36.71.19,1.21-1.28.94l-115.08-115.77,115.08-115.22c1.47-.27.92.23,1.28.94.75,1.47,2.65,7.29,2.84,8.81v211.5Z"/>
  <path class="cls-1" d="M29.83.24l322.32-.24c1.92.23,12.14,1.71,11.59,4.13l-163.47,163.54c-4.36,3.8-12.19,3.79-16.53,0L20.25,3.41,29.83.24Z"/>
  <path class="cls-1" d="M134.73,151.58c14.58,10.23,31.53,37.99,49.73,40.86,31.51,4.96,43.45-24.84,64.81-40.86l114.48,115.06c-.36,1.55-10.36,3.5-12.34,3.42H32.59c-2.53-.18-9.77-1.3-11.57-2.68-.76-.58-1.23-1.07-.41-1.87l114.12-113.93Z"/>
</svg>