<?xml version="1.0" encoding="UTF-8"?>
<svg id="Camada_1" data-name="Camada 1" xmlns="http://www.w3.org/2000/svg" viewBox="0 0 19.05 20.48">
  <defs>
    <style>
      .cls-1 {
        fill: #2b2b2b;
      }
    </style>
  </defs>
  <path class="cls-1" d="M4.43,0c.7.23,1.16.79,1.57,1.36.7.97,1.9,2.75,1.51,3.97-.49,1.54-2.78,1.66-2.52,3.55.24,1.71,3.27,5.11,4.79,5.92,1.87,1,2.19-.24,3.46-1.22,1.47-1.14,2.66-.21,3.86.78s2.87,2.27,1.34,3.74c-2.28,2.19-4.58,2.98-7.69,1.89C6.62,18.55,1.55,12.75.37,8.56-.62,5.09.4,2.57,3.17.44c.26-.2.51-.34.82-.44h.44Z"/>
</svg>