<?xml version="1.0" encoding="UTF-8"?>
<svg id="Capa_1" xmlns="http://www.w3.org/2000/svg" version="1.1" viewBox="0 0 512 512">
  <!-- Generator: Adobe Illustrator 29.1.0, SVG Export Plug-In . SVG Version: 2.1.0 Build 142)  -->
  <defs>
    <style>
      .st0 {
        fill: #2b2b2b;
        fill-rule: evenodd;
      }
    </style>
  </defs>
  <path class="st0" d="M436.5,74.4C388.6,26.5,324.9,0,257.1,0,117.2,0,3.4,113.8,3.3,253.7c0,44.7,11.7,88.4,33.9,126.8L1.2,512l134.5-35.3c37.1,20.2,78.8,30.9,121.2,30.9h.1c139.8,0,253.7-113.8,253.7-253.7,0-67.8-26.3-131.5-74.2-179.5ZM257.1,464.7h0c-37.8,0-74.9-10.2-107.3-29.4l-7.7-4.6-79.8,20.9,21.3-77.8-5-8c-21.1-33.6-32.3-72.4-32.2-112.2,0-116.3,94.7-210.9,211-210.9s109.3,22,149.1,61.8c39.8,39.9,61.7,92.8,61.7,149.2,0,116.3-94.7,210.9-210.9,210.9ZM372.7,306.8c-6.3-3.2-37.5-18.5-43.3-20.6-5.8-2.1-10-3.2-14.3,3.2s-16.4,20.6-20.1,24.9c-3.7,4.2-7.4,4.8-13.7,1.6-6.3-3.2-26.8-9.9-51-31.5-18.8-16.8-31.6-37.6-35.3-43.9s-.4-9.8,2.8-12.9c2.9-2.8,6.3-7.4,9.5-11.1,3.2-3.7,4.2-6.3,6.4-10.6,2.1-4.2,1.1-7.9-.5-11.1-1.6-3.2-14.3-34.4-19.5-47.1-5.1-12.4-10.4-10.7-14.3-10.9-3.7-.2-7.9-.2-12.2-.2s-11.1,1.6-16.9,7.9c-5.8,6.4-22.2,21.7-22.2,52.9s22.7,61.4,25.9,65.6,44.7,68.3,108.3,95.7c15.1,6.5,26.9,10.4,36.1,13.4,15.2,4.8,29,4.1,39.9,2.5,12.2-1.8,37.5-15.3,42.8-30.1s5.3-27.5,3.7-30.1c-1.6-2.7-5.8-4.2-12.1-7.4Z"/>
</svg>